<svg viewBox="0 0 400 300" xmlns="http://www.w3.org/2000/svg"><path d="m273.83 180.19v47h-146.53v-47a15.18 15.18 0 0 1 15.18-15.19h116.17a15.18 15.18 0 0 1 15.18 15.19z" fill="#68e1fd"/><path d="m273.83 228.23h-146.53a1 1 0 0 1 -1-1v-47a16.2 16.2 0 0 1 16.18-16.23h116.17a16.2 16.2 0 0 1 16.18 16.18v47a1 1 0 0 1 -1 1.05zm-145.53-2h144.53v-46a14.19 14.19 0 0 0 -14.18-14.23h-116.17a14.19 14.19 0 0 0 -14.18 14.18z" fill="#093f68"/><path d="m273.83 180.19v1.31a18.81 18.81 0 0 0 -6.12-.93c-13.43 0-13.43 10.7-26.87 10.7s-13.43-10.7-26.86-10.7-13.43 10.7-26.85 10.7-13.43-10.7-26.86-10.7-13.43 10.7-26.86 10.7a18.7 18.7 0 0 1 -6.11-.93v-10.15a15.18 15.18 0 0 1 15.18-15.19h116.17a15.18 15.18 0 0 1 15.18 15.19z" fill="#fff"/><path d="m240.84 192.27c-7.06 0-10.61-2.83-14.05-5.57s-6.44-5.13-12.81-5.13-9.49 2.5-12.8 5.13-7 5.57-14.05 5.57-10.62-2.83-14.06-5.57-6.44-5.13-12.8-5.13-9.5 2.5-12.81 5.13-7 5.57-14.05 5.57a19.74 19.74 0 0 1 -6.44-1 1 1 0 0 1 -.67-.95v-10.13a16.2 16.2 0 0 1 16.18-16.19h116.17a16.2 16.2 0 0 1 16.18 16.18v1.31a1 1 0 0 1 -.42.81 1 1 0 0 1 -.9.14 17.8 17.8 0 0 0 -5.8-.88c-6.36 0-9.49 2.49-12.81 5.13s-6.99 5.58-14.06 5.58zm-26.84-12.7c7.07 0 10.62 2.83 14.06 5.57s6.44 5.13 12.8 5.13 9.5-2.49 12.82-5.13 7-5.57 14-5.57a21.1 21.1 0 0 1 5.12.59 14.19 14.19 0 0 0 -14.15-14.16h-116.17a14.19 14.19 0 0 0 -14.18 14.18v9.42a18.45 18.45 0 0 0 5.11.66c6.36 0 9.49-2.49 12.8-5.13s7-5.57 14.06-5.57 10.61 2.83 14 5.57 6.44 5.13 12.81 5.13 9.49-2.49 12.8-5.13 7.04-5.56 14.12-5.56z" fill="#093f68"/><path d="m256.94 127.69v37.31h-112.75v-37.31a13.37 13.37 0 0 1 13.37-13.36h86a13.37 13.37 0 0 1 13.35 12.76c.02.2.03.4.03.6z" fill="#68e1fd"/><path d="m256.94 166h-112.75a1 1 0 0 1 -1-1v-37.3a14.38 14.38 0 0 1 14.37-14.37h86a14.32 14.32 0 0 1 14.36 13.67v.66 37.34a1 1 0 0 1 -.98 1zm-111.75-2h110.75v-36.3c0-.2 0-.38 0-.57a12.33 12.33 0 0 0 -12.35-11.8h-86a12.39 12.39 0 0 0 -12.37 12.37z" fill="#093f68"/><path d="m256.92 127.09a12.66 12.66 0 0 0 -7.83-2.43c-9.71 0-9.71 7.73-19.41 7.73s-9.71-7.73-19.41-7.73-9.72 7.73-19.42 7.73-9.7-7.73-19.41-7.73-9.7 7.73-19.41 7.73a12.76 12.76 0 0 1 -7.84-2.44v-2.26a13.37 13.37 0 0 1 13.37-13.36h86a13.37 13.37 0 0 1 13.36 12.76z" fill="#fff"/><path d="m229.68 133.39c-5.21 0-7.81-2.08-10.33-4.08-2.35-1.88-4.58-3.65-9.08-3.65s-6.74 1.77-9.09 3.65c-2.52 2-5.13 4.08-10.33 4.08s-7.81-2.08-10.33-4.08c-2.35-1.88-4.58-3.65-9.08-3.65s-6.73 1.77-9.08 3.65c-2.52 2-5.12 4.08-10.33 4.08a13.59 13.59 0 0 1 -8.41-2.62 1 1 0 0 1 -.43-.82v-2.25a14.38 14.38 0 0 1 14.37-14.37h86a14.32 14.32 0 0 1 14.36 13.67 1 1 0 0 1 -.52.93 1 1 0 0 1 -1.06-.06 11.67 11.67 0 0 0 -7.25-2.25c-4.5 0-6.73 1.77-9.09 3.65-2.52 2.04-5.12 4.12-10.32 4.12zm-19.41-9.73c5.2 0 7.81 2.07 10.33 4.08 2.35 1.88 4.57 3.65 9.08 3.65s6.72-1.77 9.08-3.65c2.52-2 5.13-4.08 10.33-4.08a13.76 13.76 0 0 1 6.58 1.49 12.32 12.32 0 0 0 -12.1-9.82h-86a12.39 12.39 0 0 0 -12.37 12.37v1.72a11.69 11.69 0 0 0 6.84 2c4.51 0 6.73-1.77 9.08-3.65 2.52-2 5.13-4.08 10.33-4.08s7.81 2.07 10.33 4.08c2.35 1.88 4.58 3.65 9.08 3.65s6.73-1.77 9.08-3.65c2.51-2.04 5.12-4.11 10.33-4.11z" fill="#093f68"/><path d="m175.66 89.31c0 4.89-2.21 6.15-4.94 6.15s-4.94-1.26-4.94-6.15 4.94-11.54 4.94-11.54 4.94 6.66 4.94 11.54z" fill="#ffbc0e"/><path d="m170.72 96.46c-3.94 0-5.94-2.41-5.94-7.15 0-5.15 4.93-11.85 5.14-12.14a1 1 0 0 1 1.6 0c.21.29 5.14 7 5.14 12.14 0 4.74-2 7.15-5.94 7.15zm0-16.93c-1.35 2.07-3.94 6.45-3.94 9.78 0 4.53 2 5.15 3.94 5.15s3.94-.62 3.94-5.15c0-3.31-2.59-7.71-3.94-9.78z" fill="#093f68"/><path d="m166.37 98.92h8.28v15.41h-8.28z" fill="#70cc40"/><path d="m174.65 115.33h-8.28a1 1 0 0 1 -1-1v-15.41a1 1 0 0 1 1-1h8.28a1 1 0 0 1 1 1v15.41a1 1 0 0 1 -1 1zm-7.28-2h6.28v-13.41h-6.28z" fill="#093f68"/><path d="m170.51 99.92a1 1 0 0 1 -1-1v-8.7a1 1 0 0 1 2 0v8.7a1 1 0 0 1 -1 1z" fill="#093f68"/><path d="m205.49 82.31c0 4.89-2.21 6.15-4.94 6.15s-4.94-1.26-4.94-6.15 4.94-11.54 4.94-11.54 4.94 6.66 4.94 11.54z" fill="#ffbc0e"/><path d="m200.55 89.46c-3.94 0-5.94-2.41-5.94-7.15 0-5.15 4.93-11.85 5.14-12.14a1 1 0 0 1 1.61 0c.21.29 5.14 7 5.14 12.14 0 4.74-2 7.15-5.95 7.15zm0-16.93c-1.35 2.07-3.94 6.45-3.94 9.78 0 4.53 2 5.15 3.94 5.15s3.95-.62 3.95-5.15c0-3.31-2.59-7.71-3.95-9.78z" fill="#093f68"/><path d="m196.21 91.92h8.28v22.41h-8.28z" fill="#f56132"/><path d="m204.49 115.33h-8.28a1 1 0 0 1 -1-1v-22.41a1 1 0 0 1 1-1h8.28a1 1 0 0 1 1 1v22.41a1 1 0 0 1 -1 1zm-7.28-2h6.28v-20.41h-6.28z" fill="#093f68"/><path d="m200.35 92.92a1 1 0 0 1 -1-1v-8.7a1 1 0 0 1 2 0v8.7a1 1 0 0 1 -1 1z" fill="#093f68"/><path d="m235.33 89.31c0 4.89-2.21 6.15-4.94 6.15s-4.94-1.26-4.94-6.15 4.94-11.54 4.94-11.54 4.94 6.66 4.94 11.54z" fill="#ffbc0e"/><path d="m230.39 96.46c-3.94 0-5.94-2.41-5.94-7.15 0-5.15 4.93-11.85 5.14-12.14a1 1 0 0 1 .8-.4 1 1 0 0 1 .8.4c.21.29 5.14 7 5.14 12.14 0 4.74-2 7.15-5.94 7.15zm0-16.93c-1.35 2.07-3.94 6.45-3.94 9.78 0 4.53 2 5.15 3.94 5.15s3.94-.62 3.94-5.15c0-3.31-2.59-7.72-3.94-9.78z" fill="#093f68"/><path d="m226.04 98.92h8.28v15.41h-8.28z" fill="#70cc40"/><g fill="#093f68"><path d="m234.32 115.33h-8.32a1 1 0 0 1 -1-1v-15.41a1 1 0 0 1 1-1h8.28a1 1 0 0 1 1 1v15.41a1 1 0 0 1 -.96 1zm-7.28-2h6.28v-13.41h-6.32z"/><path d="m230.18 99.92a1 1 0 0 1 -1-1v-8.7a1 1 0 1 1 2 0v8.7a1 1 0 0 1 -1 1z"/><path d="m292.94 228.23h-185.88a1 1 0 1 1 0-2h185.88a1 1 0 0 1 0 2z"/></g></svg>